/* XPM */
static char *bitcoin32[] = {
/* columns rows colors chars-per-pixel */
"32 32 180 2 ",
"   c #000409",
".  c #030E14",
"X  c #07161D",
"o  c #0B1C24",
"O  c #142831",
"+  c #132E3A",
"@  c #17313D",
"#  c #25353C",
"$  c #1E3640",
"%  c #203944",
"&  c #203D4B",
"*  c #293D47",
"=  c #2C424C",
"-  c #32444C",
";  c #244553",
":  c #2A4D5C",
">  c #2B4755",
",  c #324956",
"<  c #354E5A",
"1  c #35515E",
"2  c #39515E",
"3  c #234D61",
"4  c #275265",
"5  c #2A5163",
"6  c #2B596E",
"7  c #335666",
"8  c #3B5562",
"9  c #3E5866",
"0  c #305769",
"q  c #345A6B",
"w  c #3D5A69",
"e  c #2F5F75",
"r  c #315E73",
"t  c #2E6279",
"y  c #366073",
"u  c #3D6374",
"i  c #3D6678",
"p  c #37687D",
"a  c #39697E",
"s  c #32657C",
"d  c #415057",
"f  c #415865",
"g  c #425D6C",
"h  c #45606F",
"j  c #48616F",
"k  c #456373",
"l  c #496675",
"z  c #416778",
"x  c #496778",
"c  c #466D7E",
"v  c #4C6B7C",
"b  c #516C7B",
"n  c #516875",
"m  c #56707E",
"M  c #58717D",
"N  c #2F6882",
"B  c #356A83",
"V  c #3A6E86",
"C  c #34708B",
"Z  c #3D7791",
"A  c #3E7B96",
"S  c #4E6F80",
"D  c #436F82",
"F  c #447287",
"G  c #4D7183",
"H  c #45768D",
"J  c #46788E",
"K  c #4E7A8E",
"L  c #527283",
"P  c #5C7683",
"I  c #5F7884",
"U  c #547689",
"Y  c #567A8C",
"T  c #5B7B8C",
"R  c #4C7D92",
"E  c #457F99",
"W  c #537E91",
"Q  c #5C7E91",
"!  c #627D8B",
"~  c #3E82A1",
"^  c #46819C",
"/  c #4C839C",
"(  c #558195",
")  c #5D8194",
"_  c #53849A",
"`  c #5B859A",
"'  c #5B899E",
"]  c #64808E",
"[  c #69818D",
"{  c #648393",
"}  c #6A8694",
"|  c #6C8897",
" . c #638699",
".. c #66899B",
"X. c #6B8C9C",
"o. c #718E9D",
"O. c #748B96",
"+. c #72909F",
"@. c #4B8AA6",
"#. c #4C8DAB",
"$. c #4987A2",
"%. c #538CA5",
"&. c #5B8DA3",
"*. c #5491AC",
"=. c #5B93AD",
"-. c #648CA1",
";. c #6A8FA2",
":. c #6391A5",
">. c #6D91A3",
",. c #6295AC",
"<. c #6D96AA",
"1. c #6D9AAE",
"2. c #7394A4",
"3. c #7994A2",
"4. c #7F9BA7",
"5. c #7197AA",
"6. c #7599AB",
"7. c #7A9CAE",
"8. c #649CB6",
"9. c #6B9DB4",
"0. c #739EB2",
"q. c #7E9FB1",
"w. c #7DA0AF",
"e. c #6AA0B7",
"r. c #6BA2BB",
"t. c #65A2BD",
"y. c #7CA2B4",
"u. c #73A4BA",
"i. c #7BA6BA",
"p. c #77A5B9",
"a. c #73AAC3",
"s. c #7BABC0",
"d. c #7BB2CA",
"f. c #839AA5",
"g. c #829EAC",
"h. c #84A4B4",
"j. c #8AA6B4",
"k. c #80A6B9",
"l. c #89A7B8",
"z. c #83AABC",
"x. c #8BAABA",
"c. c #8DA8B4",
"v. c #91ADBC",
"b. c #88AFC1",
"n. c #8CB0C1",
"m. c #83B4CA",
"M. c #8CB8CB",
"N. c #94B3C2",
"B. c #9AB5C3",
"V. c #9EBAC7",
"C. c #91B7C9",
"Z. c #94BCCD",
"A. c #9FBECC",
"S. c #84BAD2",
"D. c #8ABCD2",
"F. c #95BED1",
"G. c #A5BEC9",
"H. c #8AC0D8",
"J. c #98C3D7",
"K. c #BBC6CC",
"L. c #A3C4D2",
"P. c #AFC8D3",
"I. c #A1C7D8",
"U. c #A4CCDE",
"Y. c #AECBD8",
"T. c #B6CEDA",
"R. c #AFD0DF",
"E. c #B6D1DE",
"W. c #ACD2E2",
"Q. c #B2D6E5",
"!. c #BBD9E7",
"~. c #C5DCE6",
"^. c #D1DCE1",
"/. c #CCE3ED",
"(. c #D3E4EB",
"). c #D8E7EE",
"_. c #D6EFFB",
"`. c #E0E8EC",
"'. c #E2F1F8",
"]. c None",
/* pixels */
"].].].].].].].].].].].].].2.>.;..... .].].].].].].].].].].].].].",
"].].].].].].].].].].].>. .T U G S v v v L ].].].].].].].].].].].",
"].].].].].].].].6.X.T v x x x x x x k g f g x U ].].].].].].].].",
"].].].].].].].>.T k x c S v x x x x x x x g 9 k Q ].].].].].].].",
"].].].].].]...x l c k f k k k k g k g k h h k f k ;.].].].].].].",
"].].].].].) h v h h 2 f k ] { X.X.} ! b g w g g f g 2.].].].].].",
"].].].].Q g x g 2 f M +.c.1.w.( _ c ) X. .b w w f 8 9 ..].].].].",
"].].].Q h k g 8 u M | O.^.C p.) Z F B R ).3.P 9 9 9 2 9 Y ].].].",
"].].Q x g k 2 9 } K.U N > w.( :.~ <.p y.(.A.x.[ 8 2 8 < f S ].].",
"].].S 9 g 8 9 P  .P.u.1.M z T.~.e.5 0 u.R./.a.y.P 1 2 2 < k ].].",
"].U g g g 8 j x.c.' F ,.6.2.'.).E.) H F (.L.t 5 } n < 2 < 2 x ].",
"].v 9 g g 9 ! E._.R.W i q L e.e.A s %.w.y.u ; y V [ 2 < 2 < g ].",
"].k 8 9 9 k ! z f.E.Z.-.1.w 6 S.c y J.d./ 5 5 6 e.V.g < 2 < f ].",
"Y k 8 9 8 M { 6 + , z :.W.2.  >.= v 9.4 : 0 t p T.v.M < 8 2 < k ",
"{ x 2 8 2 ! b *.^ B y q c L ; ) w.l X , K f.j.( Y ` } 2 8 8 2 g ",
";.b < 8 < ! F p.U.9.^ %.q @ r.H.W...( Q.Q.L.l.Z.k.d.o.8 8 f 8 g ",
"g.M , 2 1 [ =.i.`.:.@.W.Q.Z.) : ; 5 = u i.=.p e.` l +.w w 9 2 l ",
"g.! , 2 < M w.N.L.a.,.F.i.1 = % # @ 7 o @ J y q 6 1 | h h h h l ",
"2.T , 2 < n i.J.I.Z.9.u. .>.F O : . u u q e.7 & ; ( { w h h h l ",
"].U < 2 < f j.z.r.r.p K L.S._ < J.] + 5 x.L.^ 6 4 <.P u z k l ].",
"].L 2 8 2 2 [ = @.#.r p Y.d.-.{ !.J.q <./ i.,.{ < 3.v v m k h ].",
"].v 9 2 8 2 n ] ` _ C 2.m.#.' ` C.u./ t c L.i.1.G.Q G U ( h g ].",
"].].h 1 9 9 9 I N.- + ` m.8.#.8.' t.*.Z 3 y H.i.6.v v ` Y 8 ].].",
"].].k 2 w w w h | d 5 =.D.8.%.9.^ 0.^ @._ k x.x.) v U 1.k 8 ].].",
"].].].f 8 k g g k } 5.I.<.B @.%.,.0.i &.< g.h.;.v Q k.T 2 ].].].",
"].].].].8 9 x x x x T l.| x ` m.6.{ Q C.g.l...L [ x.o.8 ].].].].",
"].].].].].2 g G G U U Y ;.0.g.b.b.l.C.g.>.! ! O.N.3.9 ].].].].].",
"].].].].].].9 x W Q `  .-.-.5.5.q.q.g.! P } h.N.| 9 ].].].].].].",
"].].].].].].].k x Q 5.0.0.q.g.g.h.l.x.g.j.B.g.L w ].].].].].].].",
"].].].].].].].].k k v { 4.l.N.N.N.N.v.j.o.L g f ].].].].].].].].",
"].].].].].].].].].].].9 9 j b L L b l g w ].].].].].].].].].].].",
"].].].].].].].].].].].].].1 < < 2 8 9 ].].].].].].].].].].].].]."
};
