/* XPM */
static char *bitcoin16[] = {
/* columns rows colors chars-per-pixel */
"16 16 184 2 ",
"   c #203B48",
".  c #364C59",
"X  c #354E5B",
"o  c #314F5C",
"O  c #374F5C",
"+  c #37505D",
"@  c #39505C",
"#  c #38515E",
"$  c #3C535F",
"%  c #285265",
"&  c #295467",
"*  c #365664",
"=  c #385361",
"-  c #3B5361",
";  c #395463",
":  c #3A5462",
">  c #3D5460",
",  c #3C5563",
"<  c #385764",
"1  c #3C5664",
"2  c #3D5664",
"3  c #3D5764",
"4  c #3E5664",
"5  c #3E5865",
"6  c #3D5866",
"7  c #3F5866",
"8  c #3E5867",
"9  c #3F5867",
"0  c #3E5967",
"q  c #3D5968",
"w  c #3D5969",
"e  c #3F5968",
"r  c #385F70",
"t  c #356175",
"y  c #386579",
"u  c #405865",
"i  c #405A68",
"p  c #415B69",
"a  c #405C6B",
"s  c #415C6B",
"d  c #465D69",
"f  c #445D6A",
"g  c #415C6C",
"h  c #415D6D",
"j  c #435E6E",
"k  c #435F6E",
"l  c #44606F",
"z  c #436070",
"x  c #456271",
"c  c #456272",
"v  c #466272",
"b  c #476372",
"n  c #466474",
"m  c #476474",
"M  c #456777",
"N  c #476677",
"B  c #4B6570",
"V  c #4B6472",
"C  c #4A6675",
"Z  c #486576",
"A  c #4C6877",
"S  c #496778",
"D  c #476C7E",
"F  c #496879",
"G  c #4A6879",
"H  c #4B697A",
"J  c #4A697B",
"K  c #4C6A7B",
"L  c #4A6C7B",
"P  c #506773",
"I  c #526C7A",
"U  c #516C7C",
"Y  c #506E7C",
"T  c #536F7E",
"R  c #4F707E",
"E  c #5C717C",
"W  c #406D82",
"Q  c #476E80",
"!  c #4E6F80",
"~  c #407085",
"^  c #487081",
"/  c #4A7080",
"(  c #4F7185",
")  c #407288",
"_  c #447388",
"`  c #4E798D",
"'  c #4D7A8E",
"]  c #507081",
"[  c #547180",
"{  c #557180",
"}  c #547283",
"|  c #527384",
" . c #547385",
".. c #507485",
"X. c #567787",
"o. c #5A7685",
"O. c #53768A",
"+. c #567789",
"@. c #57788A",
"#. c #577C8D",
"$. c #597888",
"%. c #597A8B",
"&. c #5A7B8A",
"*. c #5A7A8B",
"=. c #597A8D",
"-. c #4C7D93",
";. c #427E98",
":. c #507F95",
">. c #5D7F91",
",. c #5C7F93",
"<. c #607985",
"1. c #607F8D",
"2. c #5B8496",
"3. c #5D8496",
"4. c #5A8699",
"5. c #5D8499",
"6. c #5F8799",
"7. c #5C8A9F",
"8. c #678391",
"9. c #608596",
"0. c #618596",
"q. c #628496",
"w. c #668495",
"e. c #698390",
"r. c #6A8595",
"t. c #6C8694",
"y. c #668799",
"u. c #688A9C",
"i. c #698C9C",
"p. c #6F8E9E",
"a. c #708D9D",
"s. c #738E9D",
"d. c #78929F",
"f. c #508CA7",
"g. c #5A8BA2",
"h. c #5E8CA0",
"j. c #5F8CA0",
"k. c #5E8DA2",
"l. c #5E8EA3",
"z. c #5B8DA4",
"x. c #5D92AA",
"c. c #6390A4",
"v. c #6990A1",
"b. c #6A90A1",
"n. c #6A92A3",
"m. c #6D90A1",
"M. c #6B94A6",
"N. c #6295AC",
"B. c #6E93A8",
"V. c #6F97A8",
"C. c #6C97AA",
"Z. c #7392A3",
"A. c #7595A5",
"S. c #7994A3",
"D. c #7A96A5",
"F. c #7697A8",
"G. c #7C99A9",
"H. c #7C9CAB",
"J. c #749DB0",
"K. c #769FB1",
"L. c #7BA1B3",
"P. c #7EA0B0",
"I. c #7FA1B3",
"U. c #7BA3B6",
"Y. c #7EA3B4",
"T. c #6EA7C1",
"R. c #79AEC5",
"E. c #7DB0C7",
"W. c #7EB0C6",
"Q. c #809CAC",
"!. c #819FAF",
"~. c #80A1B1",
"^. c #84A5B4",
"/. c #87ACBC",
"(. c #89AAB8",
"). c #89AAB9",
"_. c #88A9BB",
"`. c #86AFC2",
"'. c #8DBACE",
"]. c #A4C5D4",
"[. c #AACAD8",
"{. c #B2D2E0",
"}. c #C4DEE9",
"|. c None",
/* pixels */
"|.|.|.|.|.|.u.>.@. .|.|.|.|.|.|.",
"|.|.|.|.y.@./ K N m x K |.|.|.|.",
"|.|.|.=.C w C { { C w h %.|.|.|.",
"|.|.| h 0 <.~.7.' 0.t.1 , { |.|.",
"|.] h - d.n.&./.-.6.}.m.$ O x |.",
"|.l : e.[.7.&.{.7.k.).t Y . - |.",
"K 0 f X.1.n.3.t Q l.% y ^., O w ",
"%.1 f 4.z.~ L 3.i.L ).P.J.V # 1 ",
"s.1 u Y.].R.P.*   < ' ~ ( I w l ",
"0.u # G.E.g.U.M B + M.% D Y x b ",
"|.p # P :.W E.c.'.) C.L.e.! F |.",
"|.p 1 m E / T.f.x.;.^ `.+.2.s |.",
"|.|.1 x S F.0.N.F.b.A.w.Z.Y |.|.",
"|.|.|.h O.5.B.P._.!.s.D.o.|.|.|.",
"|.|.|.|.S =.p.G.H.S.t.K |.|.|.|.",
"|.|.|.|.|.|.O 1 p = |.|.|.|.|.|."
};
