/* XPM */
static char *bitcoin64[] = {
/* columns rows colors chars-per-pixel */
"64 64 231 2 ",
"   c #030709",
".  c #091419",
"X  c #0D1C24",
"o  c #051A24",
"O  c #131E24",
"+  c #0C222C",
"@  c #13242C",
"#  c #162328",
"$  c #0A2531",
"%  c #152A33",
"&  c #192C34",
"*  c #152C37",
"=  c #1B333E",
"-  c #17323E",
";  c #21333B",
":  c #1B3641",
">  c #1B3C4B",
",  c #183847",
"<  c #223D49",
"1  c #233A45",
"2  c #1E4253",
"3  c #1D485B",
"4  c #24414E",
"5  c #2E434F",
"6  c #234453",
"7  c #264A5B",
"8  c #2B4D5C",
"9  c #294755",
"0  c #314652",
"q  c #344955",
"w  c #364D5A",
"e  c #384F5B",
"r  c #3E4E55",
"t  c #36505D",
"y  c #39515E",
"u  c #3B474D",
"i  c #1E4D62",
"p  c #244E61",
"a  c #2B5263",
"s  c #27566B",
"d  c #2B566A",
"f  c #2E5A6D",
"g  c #265164",
"h  c #3C5562",
"j  c #3E5866",
"k  c #325A6C",
"l  c #3E5A69",
"z  c #335463",
"x  c #2E5E73",
"c  c #245B74",
"v  c #325E71",
"b  c #2C627B",
"n  c #346176",
"m  c #34657B",
"M  c #3C6679",
"N  c #3C6A7F",
"B  c #396477",
"V  c #405966",
"C  c #425D6C",
"Z  c #455A64",
"A  c #44606F",
"S  c #4A626F",
"D  c #456373",
"F  c #496675",
"G  c #4D6976",
"H  c #496778",
"J  c #436A7C",
"K  c #4B6A7B",
"L  c #416778",
"P  c #536E7C",
"I  c #546C7A",
"U  c #58717E",
"Y  c #434F55",
"T  c #356B83",
"R  c #3A6D83",
"E  c #356F8A",
"W  c #3C738B",
"Q  c #37718C",
"!  c #3C7E9B",
"~  c #3B7994",
"^  c #2F7798",
"/  c #4E6F81",
"(  c #446E81",
")  c #4E7183",
"_  c #43758C",
"`  c #467488",
"'  c #537384",
"]  c #5B7584",
"[  c #5D7887",
"{  c #537689",
"}  c #55798C",
"|  c #5B7C8C",
" . c #587788",
".. c #437A94",
"X. c #4C7D93",
"o. c #427E99",
"O. c #487F98",
"+. c #547D91",
"@. c #597E92",
"#. c #627D8C",
"$. c #647B87",
"%. c #3E86A6",
"&. c #3F809D",
"*. c #44829D",
"=. c #4C829A",
"-. c #4D8096",
";. c #5C8195",
":. c #52859C",
">. c #5D859B",
",. c #59879D",
"<. c #65808E",
"1. c #6B838E",
"2. c #648293",
"3. c #6B8593",
"4. c #6E8896",
"5. c #61869A",
"6. c #628A9D",
"7. c #6B8A9A",
"8. c #728D9B",
"9. c #768B96",
"0. c #77919E",
"q. c #72838B",
"w. c #4485A2",
"e. c #4C89A4",
"r. c #4C8DAA",
"t. c #4788A6",
"y. c #538BA4",
"u. c #538EA9",
"i. c #568AA1",
"p. c #5591AC",
"a. c #5B92AB",
"s. c #5E90A7",
"d. c #4C93B2",
"f. c #5C9AB6",
"g. c #5898B5",
"h. c #4B90AF",
"j. c #648DA2",
"k. c #6A8FA3",
"l. c #6391A6",
"z. c #6C92A4",
"x. c #6394AB",
"c. c #6C94AA",
"v. c #6B98AD",
"b. c #7393A3",
"n. c #7A95A3",
"m. c #7296A9",
"M. c #7499AD",
"N. c #7C9BAC",
"B. c #7D99A6",
"V. c #649BB4",
"C. c #679DB6",
"Z. c #749CB1",
"A. c #7B9EB1",
"S. c #6CA3BB",
"D. c #64A2BD",
"F. c #7CA2B4",
"G. c #72A5BC",
"H. c #7BA6BA",
"J. c #78A7BC",
"K. c #5EA6C6",
"L. c #69A7C3",
"P. c #74AAC3",
"I. c #7BADC4",
"U. c #72AEC9",
"Y. c #7DB3CB",
"T. c #7AB0C9",
"R. c #7DB7D1",
"E. c #89959B",
"W. c #829EAC",
"Q. c #8299A5",
"!. c #85A1AE",
"~. c #88A0AC",
"^. c #84A3B4",
"/. c #8AA5B3",
"(. c #8BA8B6",
"). c #84AABB",
"_. c #8CABBB",
"`. c #83A7B9",
"'. c #91AEBE",
"]. c #97ADB8",
"[. c #93B1BF",
"{. c #B5BABD",
"}. c #89AFC1",
"|. c #83B1C5",
" X c #8CB2C3",
".X c #84B4CA",
"XX c #8AB6CA",
"oX c #8CB9CD",
"OX c #87B8CE",
"+X c #94B3C3",
"@X c #93BACB",
"#X c #9BB9C7",
"$X c #8BBCD2",
"%X c #87BAD1",
"&X c #94BED1",
"*X c #9BBFD0",
"=X c #93AFC0",
"-X c #A2BCC9",
";X c #8DC2DA",
":X c #9CC3D4",
">X c #98C5D9",
",X c #9FC0CF",
"<X c #A9C1CD",
"1X c #A2C4D4",
"2X c #A4C9DA",
"3X c #ABCAD8",
"4X c #B6CED8",
"5X c #B3D1DE",
"6X c #B9D1DC",
"7X c #AFD1DF",
"8X c #ACD2E2",
"9X c #A1D1E6",
"0X c #B5D5E3",
"qX c #BAD7E4",
"wX c #A3CFE4",
"eX c #C2D5DD",
"rX c #D2DADD",
"tX c #C4DAE5",
"yX c #C9DFE9",
"uX c #C6DCE7",
"iX c #D3DDE2",
"pX c #C9E2EC",
"aX c #D2E4EC",
"sX c #D9E8EE",
"dX c #D7EAF2",
"fX c #E7EBED",
"gX c #E2EDF2",
"hX c #E8F2F6",
"jX c #FEFEFE",
"kX c #F3FAFC",
"lX c None",
/* pixels */
"lXlXlXlXlXlXlXlXlXlXlXlXlXlXlXlXlXlXlXlXlXlXlXlXlXlXlXlX[ #.3.#.#.5.#.#.lXlXlXlXlXlXlXlXlXlXlXlXlXlXlXlXlXlXlXlXlXlXlXlXlXlXlXlX",
"lXlXlXlXlXlXlXlXlXlXlXlXlXlXlXlXlXlXlXlXlXlXlXlX4.b.k.m.c.c.c.l.j.j.j.@.@.@.@.#.lXlXlXlXlXlXlXlXlXlXlXlXlXlXlXlXlXlXlXlXlXlXlXlX",
"lXlXlXlXlXlXlXlXlXlXlXlXlXlXlXlXlXlXlXlXlX8.m.M.Z.c.6.@.) / H D D D D F K / {  .} } } lXlXlXlXlXlXlXlXlXlXlXlXlXlXlXlXlXlXlXlXlX",
"lXlXlXlXlXlXlXlXlXlXlXlXlXlXlXlXlXlX2.b.N.Z.k.} D j j j l A l A A A C V h h h h C F K '  .' lXlXlXlXlXlXlXlXlXlXlXlXlXlXlXlXlXlX",
"lXlXlXlXlXlXlXlXlXlXlXlXlXlXlXlXlXb.A.M.@.D h j D K / / ) / / / / / / / / K H C h w h l H / ' lXlXlXlXlXlXlXlXlXlXlXlXlXlXlXlXlX",
"lXlXlXlXlXlXlXlXlXlXlXlXlXlXlX8.A.Z.@.C h D / ) / / K / / / K K H H H H H H H H H H C e w l K {  .lXlXlXlXlXlXlXlXlXlXlXlXlXlXlX",
"lXlXlXlXlXlXlXlXlXlXlXlXlX2.m.Z.>.C h F ' / / / / / K K K H H H H H H D D H D D D F D F D y w K @.;.U lXlXlXlXlXlXlXlXlXlXlXlXlX",
"lXlXlXlXlXlXlXlXlXlXlXlX4.M.c.K w D ) / / / S F K H H H H H H H F D D H D D D D D D D D D D C w D >.k.<.lXlXlXlXlXlXlXlXlXlXlXlX",
"lXlXlXlXlXlXlXlXlXlXlXk.M.>.j j ) ) K / H l y C F G F F D D S M D D D D D D D D D A A A D C A D y j j.A.8.lXlXlXlXlXlXlXlXlXlXlX",
"lXlXlXlXlXlXlXlXlXlX7.c.@.w D ) K P H C S C D C l F L L F L G G H H F D D S A C C D D l A A A C D h e k._.n.lXlXlXlXlXlXlXlXlXlX",
"lXlXlXlXlXlXlXlXlX7.c.{ w H / H F h D y h h h y D G K U ] <.<.<.2.<.[  .P K G A A A A A C C C C C C l w 7.}.b.lXlXlXlXlXlXlXlXlX",
"lXlXlXlXlXlXlXlX3.x.{ w H K H K y C C C l l F K ' <.0.B./.!._.(.(._././.!.B.2.] G D A l C l C C C l l l q 3.`.4.lXlXlXlXlXlXlXlX",
"lXlXlXlXlXlXlX2.j.' q H H H D V l A h l F P [ <.n.(.F.|..X<.e.p.o.e.R D z.2.W.~.8.' G S l C C l l l C j h q 5.Z.#.lXlXlXlXlXlXlX",
"lXlXlXlXlXlX[ j.@.w F H H C h w l h j G ' 7.(.4XhX`.b a.f.].g n W R a 6 R k d x.F./.3.] D C j j j j j j j h q @.j.P lXlXlXlXlXlX",
"lXlXlXlXlXlX5.;.w C G D F C w C l F P [ !./.r {.jX<Xc =.h.6X<.x ~ w.( 7 ....R ^ 1XjX-Xb.#.G C j j j j h h j e e @.| lXlXlXlXlXlX",
"lXlXlXlXlX;.;.l h H D D e C C C F P <./.1.N s n {.<XT W r.[.<Xb ..f.X.b.x.n 3 |.jXjX` z.].1.I C h h h h h h j q j } ' lXlXlXlXlX",
"lXlXlXlX .2.K w F F C D h 0 V D P #.-XQ.$ a.m ~ + 9 7X).s G H.E d.f.=.[.M.b s 4XjX).:.rXm.[.4.G C h h h h h y h 0 C ' H lXlXlXlX",
"lXlXlXlX@.} e l D D C h V V F P #.-XjXfXF K._ x 2 $ [. X3 1X).N *.r.Q <.L 6 =.Y.eX[.jXtXJ..X<X8.F V y h y h h y e q F / lXlXlXlX",
"lXlXlX .@.A w F D h w j V C I #._.H.dXjX<X~ L 7X<.o <.M.,.kXpX1X:.&.n a 4 7 S..X:XhXkX,XT.Y.J.).q.F V e h y h y h 0 h G H lXlXlX",
"lXlXlX ./ w C A C w C j V D ] W.D c Q H.H.! E iXtX2 1 l.6XkXsX6XaXH.3 7 4 -.;XJ.a.2XsX:XT.g.D.-./.$.C h y y e y y y 0 D K lXlXlX",
"lXlXlX} C w D D S l h w C P 7.4XE.D T =.x W ~ Z.dXm l ,XpXhXkXpXkXjX~.M s.-...3 !.hXgX<Xv v k 4 +./.U V y y y e e h q w G lXlXlX",
"lXlX} / w l A C C C C l F #.+X>XdXpX,X3X5. ...Q [.v ,XpX6XsXiX,X;XS.=.=.s.n c ;.dXjXdXX.7 B a = 6 A.9.C h e y y y y w q C H lXlX",
"lXlX' D w C C l C l l A P W.pX6X:XpX>Xv.x ( 6.v.p a ;.H.u.u.H.*.&.~ f B d.E ) 1Xv.1X7.b R a a *.O.1 Q.$.V y y y y w y 0 y F lXlX",
"lXlX/ h e A l C C l l S 1.!.,XaXuXqXqX1X).n 3 F 6 -.- 2 &.u.;Xx.e.=.4 W h.S.pXl.m i.8 7 6 = 8 m O.m C.9.S y e y e h h q q D lXlX",
"lX' K y h C l l l j C G W.| p _.uXpXpX3X1X2X:.2 B ;XP + d f.G.J.v._ % ! V.uXI.XXG.&.v 8 4 a n n b h.f.~.I V y y y y y w q j F lX",
"lX' H w j j j V j j C ] W.k d 2 1 U 3XuX-.,XwXG.S.Y..X= X -.L.5X*.> * g.sXS.w.U.G.-.b a f n n n X.7XpX<X$.C y y y y y y 0 h D lX",
"lX' F q C j j V V h C 4.4.X m f + . % <.-.B  X,X5X:X>Xl . @ ~ aXl.  - 6X2X%.h.W 6 = 0.J N R W i /.kXgX6X9.F y y h y y h q w D lX",
"lX} D w j j j h h V S 0.+X` T *.a 4 , % 8 d d x ).pXwX0 . . - 3Xy   - e.*.N 4 # % v K % N W N b #X#X| M Q.P V y h y h h w q C lX",
"' @.D q l h h h y h I Q.Y S.f.=...W _ ..f z -.N n H.F.6 *   * ;.' z ;.;.% . X : n Q s 8 A L ) x x.G.v.6.^.] V y y h y h e 0 C D ",
"[ 5.F q j h y h y V P !.< k L.C.G.y.W W W J G G K J l ` e.J T..XwXwX#X.   X a -.,.6.(.kXjX4X,.`.( g B y.`.$.C y h h h j h 0 C D ",
"[ c.H q h h y z y h U W.M 6 w.d.f.f.D.a.N V.X.8 % # # & S.T.;XXX:X3X5Xf 1 v.pXgXaXpX6XpXqX1XJ.>Xb.<.G.U._.3.C h h h j h h q l D ",
"#.Z.G q h y h y y V ] Q.( O. XdXsXdX5X~ ..f.U.L.g.v = $ u.U.S.;X2X,X X:..XD.|.;X|.I.OXl.n ;.).OX>X2X;X;X+X4.C j j j j j V w C D ",
"<.H.I 0 y y y y y l U (.K.U.T.sXjXfX-.x N g.G.:XqX5X:X:XI.X.J B 8 n n 7 4 n ,..X:X2X8Xl.3 B Y.XX:X).' t N.4.D l j l l C j w S D ",
"1._.U 0 y y y y y y U !.~ _ x.H.eX,Xf.&.&.XXaXsXsX3X[.5X^.< 4 : + & n = . & @ 6 N l.XXp.R *.-.R T m . l @X4.S l j A l l j y D D ",
"1._.[ 5 y y y y y y I 0.P B.F._ z.gX|.G.T.). XI.OXX.s.a & k : = ; X & 6 4 % . # @ 4 g *.N R -.-.R n 2 8 N.4.S l l l A C l h H G ",
"[ `.;.0 y y y y y y G ~.].6XaXfX5X:Xf.%.Q -.;X|.OX.Xy   & 8 ; ; 9.# @ 6 =._ $ & 4 = k a.v 6 6 8 v f n 4 8.4.A A A A A A C h H S ",
"lXN.2.5 y y y y y y S 0.;.x.J.;X7X6X5XXXS.D.H.OXJ.4 = n.XX8 % % k 8   . l J.:.- % s a.>Xk 4 6 6 7 f v N !.<.A A D C A D j l K lX",
"lXz.6.q y y y y y y A 1.@X.XOX.XXX.XXX:XOXx.v.G.l 3.qXT.u.2 % % d 7 . . * 6 ;.l.4 L S.C.-.6 6 8 4 4 a a./.U A A A D D F j A K lX",
"lX5.>.y r y y y y y Z U _.;X>X:X|.|..XG.e.m a.A.2XqXOXe.OXl + h J.z.l + # 6 : 8 J rXeXb u.u.x 8 4 8 N v.0.P D A D D D H l D K lX",
"lX .>.h q y y y y y y G 0.2X[.7.S.S.D.d.n 8 _ =.:X2Xa.J.;X} + z.qX0X8XM.% > g 2 L 7XkX4XE D.=.E a *.W F.4.K F L D H H H l G F lX",
"lXlX| C q y h w y y j A 4.Q.  7 t.r.d.*.7 7 v m oX6XV..X%XL :  X2X2X:X8XJ + B.3X&.B l.2Xh.W a.2 & p i./.' H H H K K / H h H lXlX",
"lXlX .H q h h h y h y j U Q.# 6 &.L.V.*.N R T W gXuXg.I.>XD z >X:X2X2X).b g q.;X&._ N ,.[.-.).E.- o Q.b.' K K / / ) { D j H lXlX",
"lXlXP / w w y h y y y j A 8.1.L P.S.v T *.*.c (.kXg.d.t.qXD ' 0X2X1X2XF.Q t.m b g /.aX>X,Xx.` pXfXq.^.#.) / / { { { } C C D lXlX",
"lXlXlXK h q h h y j j y C I /.S t j.-._ e.R m hXD.%.r.t.V.( R a.i.:Xg.u.V.&.N N f a (.8X;XJ.B f tX6X7.@.' { { { { +.{ e D lXlXlX",
"lXlXlXK D q h j y j j j Z A <.0.!.wXF.- 6 z N ;Xf.C.a.f.*.w.C.W m ,XD.h.|.p.~ M M g 4 b.>X:XR.f.A.W.5.H H @.@.@.@.6.D e D lXlXlX",
"lXlXlXG H w w j j j j j l A G 4.,X1X#   @ 6 k Y.).*XD.f.w.e.2Xx.b H.T.%.p.e.t.W N a 6 8 J.J.G.XX_.7.;.C H K @.>.j.;.w C C lXlXlX",
"lXlXlXlXH l q j j j l j l A A P 0.0.  . N 7 -.D.*X&XI.g.o.x.:XD.Q >.:X&.i.-.t.*.W -.- B ;XY.,X[.z.6.} F } V +.j.c.F q D lXlXlXlX",
"lXlXlXlXD D w w A j C l A l A F U N.9.& f B D.I.Y.C.I.e.w.a.Y.:.%.&.F.J.,.&.r.u.&.l.v.1 Z.:X[.v.k.@.K K K @.c.M.5.0 C l lXlXlXlX",
"lXlXlXlXlXF l q j C l C C C A A F ' W.W./ +.U.P.XXS.r.o.R g.g.~ E D.@.oXL T L.i.t.T *Xu 0.#XZ.m.>.D #.| 5.A.M.M.h y C lXlXlXlXlX",
"lXlXlXlXlXlXD y q C D A D D A A D H / 8.(.|.T.gX*Xa w.R ` f.%.=.H.m.oXJ.> l $X/ X o 3.-X+XZ.M.@./ C C M.M.M.`.P 0 D lXlXlXlXlXlX",
"lXlXlXlXlXlXD C q e D D A D D D D F H / #.N.+X4X}.. > d.L.p.x..X>X{ c.|.> v .XU.u 9.*X}.A.Z.k.z./ m.3.m.^._.2.5 C j lXlXlXlXlXlX",
"lXlXlXlXlXlXlXD l q h F D H D H H H H / { #.7.W.=X#.r _ 6 / R.P.%X} 0 _.d 3.*X*X2X@X`.A.#.@. .] C $._.^.}.8.q j C lXlXlXlXlXlXlX",
"lXlXlXlXlXlXlXlXD h q j K K K K / / / / ) { @.#.k._.+X+X0._.@XoX&X`.4.+X-X*X+X=X^.^.M.3.] #.#.S n././.=Xn.w h D lXlXlXlXlXlXlXlX",
"lXlXlXlXlXlXlXlXlXD h q l / / / ) { ) { { { @.@.@.6.k.M.`._._.=X X+X*X'.}.^.`.A.b.b.7.[ #.W.#.^.^._.+Xb.w h H lXlXlXlXlXlXlXlXlX",
"lXlXlXlXlXlXlXlXlXlXD j w l { { { } } +.@.@.@.@.>.j.j.j.c.c.m.M.A.Z.N.A.A.^.8.I ] I / ] 3.I n.=X'.+X3.w l H lXlXlXlXlXlXlXlXlXlX",
"lXlXlXlXlXlXlXlXlXlXlXH A t j { @.@.@.@.j.@.i.j.j.j.j.k.c.m.m.M.M.N.N.F.^.(.] W.#.$.#.$._.=X=X=X'.] q D H lXlXlXlXlXlXlXlXlXlXlX",
"lXlXlXlXlXlXlXlXlXlXlXlXF F C j / j.i.i.j.j.j.c.c.c.m.m.M.N.A.A.^.^.^.^.^._.0.$.P 0.^.+X_.=X+XN.C y H F lXlXlXlXlXlXlXlXlXlXlXlX",
"lXlXlXlXlXlXlXlXlXlXlXlXlXD K D j D 2.M.m.c.m.m.M.N.Z.A.W.^.^.^.^.`.(./._._.=XB.Q.=X=X=X+X~.] t C K C lXlXlXlXlXlXlXlXlXlXlXlXlX",
"lXlXlXlXlXlXlXlXlXlXlXlXlXlXlXG P D C K 7.A.^.^.W.^.^.^.^.^./._.(._._.(.'.'._.=X+X+X+X!.$.h h H G lXlXlXlXlXlXlXlXlXlXlXlXlXlXlX",
"lXlXlXlXlXlXlXlXlXlXlXlXlXlXlXlXC K H C h D #.N.(.}.=X_._._._.'._.'.'.'.=X+X+X=X/.7.I h h K / j lXlXlXlXlXlXlXlXlXlXlXlXlXlXlXlX",
"lXlXlXlXlXlXlXlXlXlXlXlXlXlXlXlXlXlXC H H l w h D $.8.B./._.=X=X=X'._./.W.8.#.K j t C H G C lXlXlXlXlXlXlXlXlXlXlXlXlXlXlXlXlXlX",
"lXlXlXlXlXlXlXlXlXlXlXlXlXlXlXlXlXlXlXlXlXD D A h w 0 w e V C C C C V h e e y C H K F lXlXlXlXlXlXlXlXlXlXlXlXlXlXlXlXlXlXlXlXlX",
"lXlXlXlXlXlXlXlXlXlXlXlXlXlXlXlXlXlXlXlXlXlXlXlXA D C C V h h h V V C D F H H D lXlXlXlXlXlXlXlXlXlXlXlXlXlXlXlXlXlXlXlXlXlXlXlX",
"lXlXlXlXlXlXlXlXlXlXlXlXlXlXlXlXlXlXlXlXlXlXlXlXlXlXlXlXC C C C C D C C lXlXlXlXlXlXlXlXlXlXlXlXlXlXlXlXlXlXlXlXlXlXlXlXlXlXlXlX"
};
